<?xml version="1.0" standalone="no"?>
<!DOCTYPE svg PUBLIC "-//W3C//DTD SVG 20010904//EN"
 "http://www.w3.org/TR/2001/REC-SVG-20010904/DTD/svg10.dtd">
<svg version="1.0" xmlns="http://www.w3.org/2000/svg"
 width="200.000000pt" height="200.000000pt" viewBox="0 0 200.000000 200.000000"
 preserveAspectRatio="xMidYMid meet">
<metadata>
Created by potrace 1.11, written by Peter Selinger 2001-2013
</metadata>
<g transform="translate(0.000000,200.000000) scale(0.100000,-0.100000)"
fill="#000000" stroke="none">
<path d="M825 1895 c-58 -21 -257 -77 -276 -79 -18 -1 -69 -44 -86 -72 -6 -10
-16 -18 -22 -17 -6 2 -16 -7 -22 -20 -7 -12 -17 -25 -22 -29 -7 -4 -6 -27 2
-70 15 -79 16 -119 3 -127 -5 -3 -6 -15 -1 -26 5 -14 8 -15 8 -4 1 23 60 79
77 72 8 -3 14 1 14 11 0 18 16 22 22 5 5 -15 42 -13 118 6 36 9 74 17 85 18
11 1 26 6 33 10 21 14 44 -12 37 -42 -8 -38 39 -87 93 -96 25 -4 42 -12 42
-20 0 -20 61 -64 99 -71 33 -7 56 -36 47 -59 -3 -8 -1 -17 5 -21 20 -12 30
-59 35 -154 6 -134 4 -204 -7 -215 -5 -5 -9 -19 -9 -32 0 -22 -9 -28 -38 -24
-8 1 -16 -7 -19 -18 -6 -23 -23 -29 -23 -8 0 6 -6 1 -14 -13 -7 -14 -11 -28
-10 -31 8 -15 56 6 69 30 13 24 14 25 15 4 0 -12 -5 -25 -10 -28 -5 -3 -10
-15 -10 -26 0 -11 -4 -17 -10 -14 -5 3 -12 -5 -16 -19 -7 -31 -57 -54 -79 -36
-19 16 -34 5 -28 -20 4 -15 0 -20 -15 -20 -11 0 -27 -2 -35 -5 -10 -4 -19 9
-32 42 -10 26 -38 69 -62 95 -25 25 -60 63 -79 84 l-35 37 -75 -6 c-69 -6 -75
-5 -72 11 2 10 -10 34 -26 53 -16 19 -27 26 -23 17 3 -10 2 -18 -3 -18 -14 0
-12 37 2 63 16 30 19 67 7 89 -6 12 -6 18 0 18 6 0 6 12 0 32 -5 19 -5 34 0
36 13 4 1 40 -16 46 -7 3 -12 2 -8 -3 8 -14 -17 -20 -37 -9 -10 5 -18 20 -18
33 0 14 -4 25 -10 25 -5 0 -10 10 -9 23 0 21 1 21 9 2 5 -11 9 -14 9 -6 1 11
4 11 17 0 25 -20 67 -17 87 7 22 29 22 39 -5 61 -29 24 -48 57 -48 83 0 11 -5
20 -11 20 -6 0 -9 -6 -6 -14 8 -20 -31 -28 -42 -8 -6 11 -11 4 -16 -29 -4 -24
-9 -51 -10 -59 -1 -8 -6 -40 -10 -70 -4 -30 -14 -66 -22 -79 -29 -46 -33 -78
-12 -105 10 -13 19 -29 19 -35 0 -6 4 -11 10 -11 20 0 38 -70 44 -170 3 -70
12 -122 26 -158 11 -29 20 -67 20 -85 0 -28 13 -71 60 -197 52 -138 84 -174
163 -184 31 -4 57 -11 57 -16 0 -5 -22 -37 -48 -72 -27 -35 -57 -76 -67 -93
l-19 -30 22 19 c12 11 24 17 26 15 6 -5 -14 -29 -43 -54 -24 -20 -24 -20 -17
0 6 17 4 17 -18 -4 -15 -14 -26 -26 -26 -27 0 -2 140 -3 312 -3 307 1 311 1
329 22 10 12 18 17 19 11 0 -5 -5 -15 -12 -22 -7 -7 -8 -12 -3 -12 6 0 20 16
33 35 22 34 49 49 39 21 -11 -29 18 -6 32 24 7 17 19 36 26 43 7 7 15 24 19
37 3 14 3 19 0 13 -7 -17 -24 -17 -24 0 0 6 11 34 25 60 14 26 23 52 20 57 -3
6 -1 18 5 27 9 15 10 14 5 -7 -5 -21 -2 -19 16 10 12 19 57 88 101 152 43 64
78 122 78 128 0 5 -20 15 -45 22 -52 14 -56 22 -61 117 -3 49 3 87 21 146 31
102 47 326 35 475 -14 169 -39 228 -148 347 -42 45 -81 83 -87 83 -5 0 -41 15
-79 34 -38 19 -104 42 -145 51 -42 9 -86 21 -99 26 -31 12 -69 10 -117 -6z
m578 -652 c-27 -5 -29 -12 -6 -28 13 -9 17 -30 18 -86 1 -41 0 -68 -3 -61 -2
6 -8 12 -14 12 -6 0 -23 11 -40 25 -40 34 -49 32 -47 -13 2 -22 -3 -53 -10
-71 -8 -17 -11 -34 -7 -38 7 -7 84 15 104 30 7 6 12 6 12 -1 0 -5 -7 -13 -16
-16 -17 -7 -16 -62 1 -59 21 3 26 -270 7 -347 -6 -25 -13 -64 -15 -85 -7 -58
-15 -73 -48 -87 -16 -7 -29 -16 -29 -20 0 -5 -5 -8 -11 -8 -6 0 -8 9 -4 21 6
19 4 21 -18 15 -23 -5 -26 -3 -24 20 1 15 -4 29 -11 31 -8 3 -10 -1 -5 -13 4
-12 3 -15 -6 -9 -7 4 -11 18 -8 31 2 13 0 24 -4 24 -5 0 -9 10 -9 23 0 18 -2
19 -10 7 -5 -8 -10 -11 -10 -7 0 5 11 23 25 41 14 18 25 36 25 40 0 4 9 19 20
33 11 14 20 22 20 17 0 -4 5 -3 11 3 13 13 14 97 2 116 -13 20 -9 77 5 77 21
0 13 17 -22 43 -31 25 -34 31 -46 121 -11 81 -10 97 2 115 20 28 124 102 132
94 3 -4 6 -1 6 5 0 7 12 11 28 11 23 -2 24 -2 5 -6z m67 -74 c0 -19 -1 -42 -1
-51 0 -10 -5 -21 -11 -24 -8 -5 -9 8 -4 44 5 40 3 58 -10 79 l-17 28 22 -21
c15 -14 22 -32 21 -55z m-113 -85 c-3 -3 -12 -4 -19 -1 -8 3 -5 6 6 6 11 1 17
-2 13 -5z m-7 -28 c0 -2 3 -11 6 -20 4 -11 1 -16 -10 -16 -9 0 -16 2 -16 4 0
2 -3 11 -6 20 -4 11 -1 16 10 16 9 0 16 -2 16 -4z m-900 -180 c0 -8 -4 -18
-10 -21 -5 -3 -10 3 -10 14 0 12 5 21 10 21 6 0 10 -6 10 -14z m180 -45 c23
-15 11 -19 -87 -25 -86 -6 -93 -5 -93 12 0 17 9 19 83 20 45 1 89 -2 97 -7z
m120 -236 c0 -8 5 -15 10 -15 23 0 8 -40 -21 -55 -32 -17 -57 -11 -26 6 9 6
17 19 17 29 0 17 -4 18 -26 10 -44 -17 -49 -11 -14 15 38 28 60 32 60 10z
m-50 -460 c-18 -31 -34 -54 -37 -51 -6 5 60 116 66 111 2 -2 -11 -29 -29 -60z
m600 9 c0 -16 -36 -64 -48 -64 -10 0 -10 5 -1 23 6 12 16 28 22 35 10 12 27
17 27 6z m-99 -87 c-10 -9 -11 -8 -5 6 3 10 9 15 12 12 3 -3 0 -11 -7 -18z
m-551 8 c0 -12 -24 -55 -32 -55 -11 0 -10 4 4 35 9 21 28 35 28 20z"/>
<path d="M1325 1187 c-4 -10 -5 -21 -1 -24 10 -10 18 4 13 24 -4 17 -4 17 -12
0z"/>
<path d="M605 1265 c-22 -14 -55 -31 -73 -40 -28 -13 -31 -18 -22 -36 6 -11
22 -24 36 -29 13 -5 26 -15 28 -22 13 -41 15 -68 6 -68 -5 0 -10 8 -11 18 -1
11 -4 8 -9 -8 -9 -31 10 -54 48 -56 15 0 35 -4 45 -9 10 -4 26 -1 40 8 13 8
39 17 58 19 33 3 34 1 43 -39 10 -47 18 -53 38 -24 8 12 32 22 60 26 26 4 55
13 65 20 16 12 14 16 -21 50 -31 30 -36 39 -25 47 10 7 7 8 -12 5 -22 -3 -26
-1 -21 17 2 12 14 28 24 37 18 14 19 18 7 37 -9 15 -20 20 -32 16 -10 -3 -26
1 -35 9 -61 53 -168 63 -237 22z m115 -140 c0 -8 -7 -15 -15 -15 -8 0 -15 7
-15 15 0 8 7 15 15 15 8 0 15 -7 15 -15z m65 -45 c-11 -5 -27 -9 -35 -9 -13
-1 -13 0 0 9 8 5 24 9 35 9 l20 0 -20 -9z"/>
<path d="M751 971 c-19 -13 -4 -31 26 -31 19 0 24 4 19 16 -3 9 -6 18 -6 20 0
7 -24 4 -39 -5z"/>
<path d="M1583 298 c-6 -7 -24 -45 -41 -85 l-30 -72 34 36 c19 20 34 41 34 47
0 18 22 36 43 36 18 0 18 2 5 22 -18 27 -32 32 -45 16z"/>
<path d="M1953 252 c0 -12 7 -24 14 -26 7 -3 13 -14 13 -25 0 -19 -5 -20 -47
-16 l-48 5 30 -14 c17 -9 42 -15 57 -16 25 0 26 2 21 38 -3 20 -14 46 -24 56
-18 19 -18 19 -16 -2z"/>
<path d="M1646 252 c-3 -6 -1 -14 5 -17 14 -9 20 -2 10 14 -6 8 -11 9 -15 3z"/>
<path d="M1670 214 c0 -4 9 -18 21 -30 12 -12 18 -27 14 -33 -10 -18 -53 -13
-75 9 -25 25 -29 25 -23 0 3 -10 16 -26 29 -35 26 -17 33 -38 9 -29 -10 4 -15
0 -15 -11 0 -9 3 -14 8 -12 19 11 102 47 109 47 4 0 -15 -16 -42 -35 -96 -68
-97 -86 -6 -84 63 2 71 4 90 30 11 15 34 36 51 45 16 10 30 22 30 26 0 17 -18
6 -68 -42 -29 -27 -52 -44 -52 -38 0 6 18 27 39 47 38 35 39 38 20 49 -29 18
-23 39 16 53 19 7 35 17 35 21 0 4 6 8 14 8 8 0 17 4 20 8 3 5 -9 8 -27 7 -53
-4 -126 -28 -129 -43 -2 -9 -14 -3 -35 19 -18 17 -33 28 -33 23z"/>
<path d="M472 125 c-33 -28 -87 -113 -78 -122 3 -4 6 -1 6 5 0 6 25 40 56 76
59 71 63 81 16 41z"/>
<path d="M1400 80 c8 -5 20 -10 25 -10 6 0 3 5 -5 10 -8 5 -19 10 -25 10 -5 0
-3 -5 5 -10z"/>
<path d="M1450 60 c19 -13 30 -13 30 0 0 6 -10 10 -22 10 -19 0 -20 -2 -8 -10z"/>
</g>
</svg>
